<?xml version="1.0" encoding="UTF-8" standalone="no"?>
<svg
   xmlns:dc="http://purl.org/dc/elements/1.1/"
   xmlns:cc="http://creativecommons.org/ns#"
   xmlns:rdf="http://www.w3.org/1999/02/22-rdf-syntax-ns#"
   xmlns:svg="http://www.w3.org/2000/svg"
   xmlns="http://www.w3.org/2000/svg"
   xmlns:xlink="http://www.w3.org/1999/xlink"
   xmlns:sodipodi="http://sodipodi.sourceforge.net/DTD/sodipodi-0.dtd"
   xmlns:inkscape="http://www.inkscape.org/namespaces/inkscape"
   width="210mm"
   height="297mm"
   version="1.1"
   viewBox="0 0 210 297"
   id="svg4"
   sodipodi:docname="pic1.svg"
   inkscape:version="0.92.4 (5da689c313, 2019-01-14)">
  <metadata
     id="metadata10">
    <rdf:RDF>
      <cc:Work
         rdf:about="">
        <dc:format>image/svg+xml</dc:format>
        <dc:type
           rdf:resource="http://purl.org/dc/dcmitype/StillImage" />
      </cc:Work>
    </rdf:RDF>
  </metadata>
  <defs
     id="defs8">
    <linearGradient
       inkscape:collect="always"
       id="linearGradient821">
      <stop
         style="stop-color:#00003f;stop-opacity:1"
         offset="0"
         id="stop817" />
      <stop
         style="stop-color:#5c32ff;stop-opacity:1"
         offset="1"
         id="stop819" />
    </linearGradient>
    <linearGradient
       inkscape:collect="always"
       xlink:href="#linearGradient821"
       id="linearGradient823"
       x1="-1.4721603"
       y1="131.39393"
       x2="210.58617"
       y2="131.39393"
       gradientUnits="userSpaceOnUse" />
  </defs>
  <sodipodi:namedview
     pagecolor="#ffffff"
     bordercolor="#666666"
     borderopacity="1"
     objecttolerance="10"
     gridtolerance="10"
     guidetolerance="10"
     inkscape:pageopacity="0"
     inkscape:pageshadow="2"
     inkscape:window-width="1024"
     inkscape:window-height="706"
     id="namedview6"
     showgrid="false"
     inkscape:zoom="0.2102413"
     inkscape:cx="-376.071"
     inkscape:cy="-9.5128787"
     inkscape:window-x="-8"
     inkscape:window-y="-8"
     inkscape:window-maximized="1"
     inkscape:current-layer="svg4" />
  <path
     d="m -1.4032,167.66 c 0.54326,0.0901 4.4879,3.289 6.5084,5.2778 1.0342,1.018 4.5176,4.7737 7.741,8.346 7.082,7.8487 9.5406,10.315 12.405,12.446 3.1738,2.3607 5.0227,3.1702 8.3814,3.6696 8.6402,1.2846 17.765,-1.3037 27.293,-7.7416 3.1174,-2.1065 4.7826,-3.6069 6.566,-5.9164 1.794,-2.3232 2.7444,-4.2674 3.2358,-6.6196 0.33307,-1.5961 0.41312,-1.7562 0.63933,-1.2847 0.4321,0.9005 0.25867,3.8539 -0.33605,5.7226 -1.5475,4.8623 -4.8354,8.7274 -10.545,12.396 -7.6685,4.9274 -16.647,7.641 -24.543,7.4176 -10.223,-0.28925 -16.125,-4.9568 -29.281,-23.156 -2.836,-3.923 -4.5907,-6.157 -7.6411,-9.7284 -0.41536,-0.48629 -0.60591,-0.85938 -0.42347,-0.8291 z m 24.661,-34.57 c 4.5517,-5.7837 13.44,-9.4957 23.417,-9.7796 1.1609,-0.033 2.0979,-0.15846 2.0822,-0.27875 -0.01565,-0.12027 -0.8459,-1.2738 -1.845,-2.5635 -6.5223,-8.419 -11.235,-23.498 -11.337,-36.27 -0.06002,-7.5706 1.2925,-16.502 3.242,-21.41 1.9388,-4.8807 4.4809,-8.9104 7.4526,-11.814 3.0914,-3.0202 9.0032,-6.0874 13.908,-7.2161 10.149,-2.3352 22.96,-0.14011 30.135,5.1633 2.6831,1.9832 4.3462,3.777 5.9655,6.4343 1.7108,2.8075 2.4515,4.8452 2.856,7.8563 0.83163,6.1911 -2.0208,10.933 -9.4244,15.667 -1.7366,1.1104 -3.1332,2.165 -3.1035,2.3436 0.02978,0.17857 0.50562,1.3334 1.0575,2.5662 1.5453,3.4519 3.2136,10.072 3.5635,14.141 0.18185,2.1148 0.50014,2.0442 1.8955,-0.42033 4.6986,-8.2986 8.7402,-12.928 15.197,-17.408 10.669,-7.4022 21.097,-10.018 31.486,-7.8993 6.7808,1.3826 12.285,4.3448 17.275,9.2954 3.0444,3.0203 8.1041,11.286 9.4126,15.376 0.10962,0.3427 0.5218,0.32578 2.3587,-0.0969 7.6742,-1.7658 14.572,-0.47279 21.325,3.9974 1.1449,0.75789 2.4459,1.4524 2.891,1.5432 1.2221,0.24956 3.5864,1.2326 5.3489,2.224 1.9483,1.0959 4.4858,3.0682 4.0246,3.1282 -0.18785,0.0244 -1.1936,-0.32119 -2.2349,-0.76812 -3.1266,-1.3417 -4.2066,-1.3722 -2.7752,-0.0783 2.731,2.4687 7.3531,9.0954 9.5123,13.638 3.8498,8.0986 4.7754,20.202 2.1642,28.298 -2.4706,7.6606 -6.9584,12.78 -12.375,14.117 -3.9013,0.9627 -9.7315,0.39057 -13.204,-1.2957 -4.0594,-1.9714 -8.7589,-6.5825 -11.867,-11.644 -2.9757,-4.8458 -5.0734,-10.942 -5.7238,-16.636 -0.14332,-1.2546 -0.34053,-2.2974 -0.43824,-2.3174 -0.0977,-0.0199 -0.83468,0.87511 -1.6377,1.989 -1.8028,2.5008 -3.461,4.2059 -5.5952,5.7533 -0.90148,0.65361 -1.679,1.3839 -1.7278,1.6229 -0.11414,0.55899 2.0004,5.0852 4.2724,9.1453 3.3959,6.0685 9.8956,15.129 14.806,20.64 0.87677,0.98404 1.3543,1.7079 1.1276,1.7092 -0.50756,0.003 -4.5764,-3.1989 -7.1738,-5.6451 -2.7809,-2.6188 -5.9589,-6.2293 -7.9428,-9.0235 -1.9969,-2.8126 -5.4924,-8.8922 -7.1163,-12.377 -0.64736,-1.3893 -1.3126,-2.5537 -1.4782,-2.5875 -0.16566,-0.0338 -1.214,0.31295 -2.3297,0.77063 -2.8465,1.1677 -6.4725,2.1027 -9.9151,2.5569 -1.6178,0.21341 -2.9621,0.48862 -2.9872,0.61154 -0.2249,1.1014 3.5702,17.523 4.2208,18.263 0.21785,0.24796 1.4614,0.29536 4.4727,0.17429 3.5969,-0.14585 10.373,0.0101 11.635,0.26774 0.86156,0.17594 0.24975,0.56749 -1.141,0.73027 -2.0634,0.24148 -9.143,1.3704 -11.572,1.8452 -1.1583,0.22646 -2.0834,0.55831 -2.1251,0.76243 -0.1275,0.62436 2.0325,6.4781 3.9298,10.65 2.2898,5.035 5.2878,10.941 8.9953,17.72 1.5879,2.9036 2.8632,5.3962 2.834,5.5391 -0.15595,0.7637 -7.0343,-7.9997 -11.161,-14.22 -4.1897,-6.3149 -6.1887,-10.215 -7.9056,-15.423 -0.58197,-1.7655 -1.1997,-3.3002 -1.3727,-3.4106 -0.17301,-0.11035 -4.0299,0.58759 -8.5709,1.551 -4.541,0.96345 -10.149,2.0945 -12.463,2.5134 -2.3134,0.41893 -4.2896,0.84775 -4.3916,0.9529 -0.23124,0.23846 -3.0082,10.445 -2.8904,10.623 0.0473,0.0715 1.4044,0.75387 3.0158,1.5163 3.5669,1.6877 5.67,2.9898 8.223,5.0911 6.3794,5.2506 9.6228,11.206 8.9944,16.515 -0.44264,3.7403 -2.4327,6.6704 -6.2172,9.1541 -3.818,2.5057 -7.2448,3.2775 -12.907,2.907 -8.6914,-0.56863 -17.045,-4.1454 -22.519,-9.6426 -3.2032,-3.2164 -4.9915,-7.0926 -5.2118,-11.297 -0.19461,-3.714 1.1002,-9.2148 3.4265,-14.558 1.2223,-2.8071 4.5401,-8.7333 5.229,-9.34 0.4729,-0.4164 0.48393,-0.40972 0.36344,0.22031 -0.06789,0.35746 -0.80098,2.6989 -1.6281,5.2034 -1.074,3.2521 -1.8422,6.1828 -2.6875,10.253 -1.0621,5.1141 -1.1681,5.9218 -1.0322,7.8673 0.19771,2.8293 0.74439,4.3808 2.4183,6.8631 4.0149,5.954 13.205,10.655 21.908,11.206 5.7054,0.36126 10.266,-1.3512 13.079,-4.9105 2.8238,-3.574 2.7331,-7.1934 -0.30074,-12.002 -1.5874,-2.5162 -5.2255,-6.2525 -7.7649,-7.9746 -2.2531,-1.528 -6.6166,-3.6688 -7.2596,-3.5618 -0.26403,0.044 -0.52843,0.3169 -0.58757,0.60651 -0.0592,0.28965 -0.2242,0.50279 -0.36678,0.47368 -0.14258,-0.0291 -0.2145,-0.27197 -0.15983,-0.53968 0.18575,-0.90962 -0.42144,-1.2868 -2.4942,-1.5492 -1.0655,-0.13491 -2.371,-0.1245 -2.9012,0.0231 -1.5409,0.42909 -3.2142,1.3622 -3.2904,1.8349 -0.03861,0.23955 0.49442,1.1182 1.1846,1.9525 2.375,2.8712 3.3317,6.5455 2.2605,8.6813 -0.62415,1.2445 -2.1754,2.3013 -3.4977,2.3828 -3.1426,0.19383 -7.1877,-3.5551 -7.4187,-6.8757 -0.17507,-2.5163 0.9462,-5.5098 2.7799,-7.4216 0.69674,-0.72645 0.8283,-1.0074 0.67025,-1.4314 -0.28039,-0.75216 -0.21286,-0.83852 0.41875,-0.53548 0.42254,0.2027 0.89533,0.0669 1.9364,-0.55619 2.8502,-1.7059 5.4561,-2.1286 8.8501,-1.4356 l 1.8898,0.3859 0.16429,-0.80452 c 0.25935,-1.2701 1.1684,-8.4708 1.121,-8.8794 -0.0235,-0.20272 0.48579,-3.2582 1.1318,-6.79 1.6256,-8.8868 3.9559,-22.754 4.1945,-24.96 l 0.19816,-1.8319 -1.452,-1.4851 c -0.79861,-0.8168 -1.9753,-2.2593 -2.6148,-3.2056 l -1.1628,-1.7205 -1.5504,-0.0289 c -6.59,-0.12283 -12.725,-2.4044 -16.367,-6.0871 -3.8705,-3.9136 -6.6932,-11.262 -6.434,-16.75 0.07892,-1.6707 0.21509,-2.2371 0.86851,-3.613 0.70207,-1.4783 0.78186,-1.8514 0.84871,-3.9688 0.21692,-6.8679 -0.74796,-12.849 -2.9153,-18.07 -0.98162,-2.3648 -1.5858,-3.2826 -2.1042,-3.1963 -0.79417,0.13222 -8.1477,3.1661 -8.1913,3.3795 -0.02565,0.1256 0.36191,0.45933 0.86123,0.74161 2.7083,1.5311 5.6791,4.8739 7.546,8.4908 2.2285,4.3175 3.2117,10.298 2.2434,13.647 -0.8322,2.8774 -3.3047,5.2703 -6.2353,6.0343 -1.5049,0.39235 -1.8585,0.3775 -4.6091,-0.19367 -2.6292,-0.54608 -3.1538,-0.73843 -4.4657,-1.6385 -2.3975,-1.6449 -4.4082,-3.8783 -6.5654,-7.2927 -2.5587,-4.0499 -4.1682,-7.6718 -5.1776,-11.651 -1.4161,-5.5828 -1.4292,-10.761 -0.03788,-14.889 2.4995,-7.4164 8.3443,-11.094 15.356,-9.6619 3.8985,0.79609 6.1569,2.2006 9.2652,5.7619 1.0521,1.2054 2.0449,2.2186 2.2062,2.2515 0.47763,0.09754 5.9273,-3.7003 7.3665,-5.1337 2.3336,-2.3242 3.1467,-3.7967 3.5561,-6.4402 0.31678,-2.0456 0.28712,-2.546 -0.27692,-4.6654 -1.5329,-5.76 -5.4201,-10.357 -11.04,-13.056 -1.9213,-0.9226 -2.8636,-1.1944 -7.1407,-2.0593 -4.0715,-0.82326 -5.4063,-0.99134 -7.6847,-0.96713 -7.4263,0.07894 -14.247,2.1197 -19.469,5.8246 -3.5046,2.4869 -6.0461,5.6035 -8.4149,10.319 -1.1496,2.2885 -1.2697,2.7071 -2.5121,8.7531 -1.4076,6.8481 -1.6592,9.8434 -1.3195,15.685 0.4614,7.9339 2.9543,17.06 7.352,26.914 1.5957,3.5754 4.5967,9.0729 5.3735,9.8437 0.36827,0.36536 1.3108,0.60012 4.4465,1.1075 2.1885,0.35414 3.9984,0.54982 4.0219,0.43493 0.02347,-0.11492 -0.42,-1.3106 -0.98548,-2.6572 -1.0147,-2.4163 -1.9633,-5.8758 -2.0054,-7.3142 -0.01645,-0.56102 0.57434,0.20659 2.4547,3.1897 3.3141,5.2577 6.2686,8.5239 8.0369,8.885 0.84917,0.17341 2.6424,-0.60068 8.0234,-3.4635 2.4925,-1.3261 4.5489,-2.2698 4.5698,-2.0971 0.05314,0.43954 -5.3898,5.354 -7.9705,7.1966 -3.6839,2.6303 -5.518,2.6904 -8.5062,0.2791 l -1.7792,-1.4357 -3.0983,-0.20638 c -1.7041,-0.11353 -3.3168,-0.0809 -3.5839,0.0726 -0.30422,0.17479 -0.75725,0.16448 -1.213,-0.0276 -1.3967,-0.58861 -9.4151,0.12492 -14.221,1.2654 -4.6735,1.1092 -9.6992,4.1015 -12.118,7.2148 -1.2488,1.6076 -1.3102,1.751 -1.213,2.8326 0.06977,0.77591 0.53939,1.8102 1.4726,3.2434 1.3186,2.0251 1.4446,2.1381 3.3468,3.0041 1.4939,0.68009 3.0213,1.1126 6.2544,1.771 4.8902,0.99555 5.9124,0.9928 15.054,-0.0453 5.1957,-0.59 5.7519,-0.61371 5.3907,-0.22988 -0.27655,0.29388 -5.9842,2.2744 -8.4849,2.9443 -5.5908,1.4975 -8.5423,1.6681 -13.748,0.79472 -6.5235,-1.0946 -8.831,-2.3409 -11.326,-6.117 -2.7852,-4.216 -2.8325,-6.9785 -0.17737,-10.352 z m 37.076,-45.265 c 0.14468,4.9474 1.491,9.4687 4.184,14.051 3.4689,5.9022 6.9222,9.0077 10.583,9.5172 2.0689,0.28797 3.5658,-0.16253 4.9435,-1.4877 0.95018,-0.91396 1.1535,-1.2869 1.4242,-2.6124 0.76903,-3.766 -0.6669,-8.4737 -3.8948,-12.769 -2.4536,-3.2651 -4.615,-4.5738 -9.0612,-5.4866 -3.185,-0.65345 -4.3988,-1.2514 -4.7184,-2.3225 -0.23641,-0.79234 0.30084,-2.1516 1.0181,-2.5759 0.29937,-0.17707 2.0371,-0.51582 3.8615,-0.75279 1.8245,-0.23696 4.2481,-0.70944 5.3858,-1.05 3.2479,-0.97207 6.7867,-2.4121 6.8646,-2.7933 0.1093,-0.53527 -3.465,-3.9693 -4.9511,-4.7568 -3.7657,-1.9955 -8.5804,-1.5692 -11.429,1.0118 -3.0712,2.7826 -4.3718,6.4981 -4.2101,12.027 z m 30.164,27.434 c 0.65524,4.0977 3.2781,8.8893 6.0339,11.023 2.3412,1.8129 4.0418,2.557 8.0839,3.5369 2.9597,0.71754 3.6803,0.82195 3.7375,0.54151 0.039,-0.19108 -0.20335,-1.3192 -0.53861,-2.5069 -1.3713,-4.858 -1.4804,-8.769 -0.40935,-14.676 0.37661,-2.0767 0.69056,-3.857 0.6977,-3.9563 0.0358,-0.49639 -2.9017,-1.9679 -5.0438,-2.5266 -2.7154,-0.7082 -5.1358,-0.72238 -7.6196,-0.0446 -2.3139,0.63141 -2.646,0.94393 -3.301,3.1064 -0.3672,1.2123 -0.76235,2.0112 -1.1463,2.3177 -0.77675,0.61995 -0.83959,1.0248 -0.49428,3.1843 z m 5.058,-13.145 c 0.17862,0.0344 1.1328,-0.0263 2.1204,-0.13518 2.7628,-0.30465 7.2636,0.49651 9.6412,1.7162 1.0083,0.51723 1.9846,0.99904 2.1695,1.0707 0.21789,0.0844 0.75542,-0.60382 1.5275,-1.9558 6.3508,-11.12 18.692,-17.873 33.155,-18.141 3.3856,-0.0627 9.6005,0.3167 9.7861,0.59744 0.20719,0.31354 -0.13702,0.38359 -5.6017,1.1404 -11.661,1.615 -17.014,3.4058 -24.062,8.0498 -4.3965,2.8971 -7.518,6.0551 -9.9054,10.021 -1.8172,3.0189 -1.8115,2.9308 -0.33986,5.2813 2.9959,4.7851 5.1028,11.841 5.705,19.106 0.11908,1.4364 0.28463,2.0154 0.59386,2.0773 0.5352,0.10623 14.159,-0.50072 14.371,-0.6411 0.0853,-0.0564 0.62393,-1.8147 1.1969,-3.9074 3.3725,-12.317 7.3061,-21.884 11.845,-28.806 1.1303,-1.7238 1.9956,-2.4467 1.4286,-1.1935 -1.1205,2.4767 -8.0066,23.5 -9.6771,29.544 -0.56232,2.0346 -0.94341,3.8188 -0.8469,3.9649 0.0966,0.14612 0.65102,0.24458 1.2322,0.21875 2.1367,-0.0948 2.547,-0.0723 2.5042,0.13729 -0.024,0.11774 -0.93579,0.44104 -2.0261,0.71845 -1.0903,0.27743 -2.0514,0.62109 -2.1358,0.76372 -0.28913,0.48876 -0.82603,5.7921 -0.81876,8.0875 0.009,2.7046 0.0886,2.7755 2.7608,2.4469 3.7822,-0.46515 11.167,-2.932 11.342,-3.7888 0.0441,-0.21599 -0.38069,-1.6621 -0.94399,-3.2136 -0.56331,-1.5515 -1.1903,-3.7662 -1.3933,-4.9216 -1.0869,-6.1864 -0.21492,-16.02 1.8326,-20.666 1.344,-3.0496 3.7132,-5.8693 6.6781,-7.9477 1.4063,-0.98582 3.2152,-2.0957 4.0198,-2.4665 0.80459,-0.37075 1.4998,-0.86886 1.5448,-1.1069 0.15293,-0.80792 -2.3863,-6.0558 -4.4566,-9.2105 -4.1207,-6.2791 -8.9146,-10.261 -15.067,-12.514 -4.761,-1.7435 -9.301,-2.2415 -14.593,-1.6009 -5.5849,0.67608 -11.003,2.8683 -17.243,6.9768 -7.0798,4.6613 -10.516,8.4182 -14.785,16.164 -1.7288,3.1368 -2.0676,4.0355 -1.5586,4.134 z m 14.661,19.065 c 0.17657,3.8376 2.0739,9.9129 3.0754,9.8474 0.2567,-0.0168 0.91924,-0.0149 1.4723,0.004 0.85564,0.0294 1.0258,-0.0643 1.141,-0.62838 0.22937,-1.1232 -0.42248,-5.5668 -1.3008,-8.8671 -0.85563,-3.2152 -2.7088,-7.7108 -3.3207,-8.0555 -0.49129,-0.27679 -1.1993,4.8307 -1.0673,7.6996 z m -13.512,74.748 c 0.53166,1.1001 1.8723,2.207 2.7363,2.259 0.5224,0.0315 0.62022,-0.11649 0.85107,-1.2872 0.28237,-1.4328 -0.29907,-3.5829 -1.4978,-5.5374 -0.67826,-1.1059 -0.90421,-1.0628 -1.7744,0.33798 -0.76626,1.2335 -0.89933,3.0188 -0.31514,4.2276 z m 18.608,-60.605 c 0.18048,0.22472 0.41235,0.35296 0.51526,0.28493 0.31968,-0.21124 0.0644,-0.98213 -0.35352,-1.0675 -0.50773,-0.10369 -0.5826,0.2585 -0.16184,0.78251 z m 4.4226,2.653 c -0.0389,0.93688 0.0657,1.134 0.83504,1.5736 1.8514,1.0578 6.0276,2.2049 9.4272,2.5895 1.7825,0.20162 3.3668,0.28343 3.5206,0.18181 0.16472,-0.10887 0.29245,-1.1127 0.31088,-2.4429 0.0172,-1.242 0.16854,-3.3045 0.33631,-4.5834 0.19605,-1.4942 0.19764,-2.3938 0.005,-2.517 -0.16534,-0.10541 -1.7924,0.0784 -3.6158,0.40858 -3.1683,0.57374 -8.9798,1.2497 -9.62,1.119 -0.16698,-0.0341 -0.46971,0.0478 -0.67276,0.18197 -0.35658,0.23566 -0.40374,0.54846 -0.52602,3.4889 z m -3.2509,20.764 c -1.4236,7.1877 -2.5489,13.128 -2.501,13.2 0.048,0.0726 1.3273,-0.33428 2.8429,-0.90423 6.213,-2.3364 13.803,-4.5081 18.531,-5.3024 1.1151,-0.18733 2.0544,-0.47272 2.0873,-0.63422 0.033,-0.16151 -0.49324,-2.6086 -1.1694,-5.4379 -1.0326,-4.3208 -1.8278,-8.7887 -2.2845,-12.834 l -0.0936,-0.82925 -2.3491,-0.34467 c -3.5422,-0.51973 -7.529,-1.3747 -10.055,-2.1562 l -2.2618,-0.6998 -0.0797,1.4369 c -0.0438,0.79029 -1.2444,7.3177 -2.6679,14.505 z m 36.228,-36.545 c -0.0619,1.8254 0.0128,4.4989 0.16596,5.9412 0.3607,3.397 1.6855,8.2325 2.2571,8.2383 0.61887,0.006 3.6166,-2.711 5.1634,-4.6802 0.7427,-0.94556 1.893,-2.804 2.5562,-4.1298 1.0755,-2.1499 1.3042,-2.8869 2.115,-6.8157 1.1577,-5.6092 1.2473,-9.9258 0.32192,-15.505 -0.50315,-3.0333 -0.59566,-3.0949 -2.7416,-1.8253 -3.8603,2.2839 -5.6619,4.0662 -7.4314,7.352 -1.3328,2.475 -2.251,6.8335 -2.4066,11.424 z m 15.824,-17.366 c 0.31086,1.7938 0.62468,3.5713 0.69738,3.9499 0.12885,0.67108 0.15704,0.65899 1.1207,-0.48075 2.431,-2.8753 5.8707,-5.0821 9.5553,-6.1303 1.078,-0.30666 2.0816,-0.63537 2.2304,-0.73045 0.85999,-0.54982 -4.8595,-1.6203 -8.1158,-1.519 -2.0732,0.0645 -5.9055,0.92615 -5.9915,1.3471 -0.0339,0.16608 0.19268,1.7696 0.50355,3.5634 z m 1.5129,18.386 c -0.88843,9.6055 0.85384,17.554 5.4158,24.707 3.4261,5.3724 7.6192,9.0407 11.848,10.365 1.9135,0.59933 5.4392,0.84039 7.5098,0.51348 2.2824,-0.36035 4.8517,-2.0495 6.6445,-4.3683 2.4108,-3.1182 3.2969,-5.1588 4.2687,-9.8312 0.95643,-4.5984 1.0339,-6.7549 0.42495,-11.828 -0.75788,-6.3138 -2.4831,-10.87 -6.3099,-16.664 -2.5984,-3.934 -5.0501,-6.6916 -8.6535,-9.7334 -1.8045,-1.5233 -2.3834,-1.685 -4.9672,-1.388 -3.4976,0.40211 -6.2392,1.3644 -8.9579,3.1443 -2.6513,1.7357 -3.9132,3.1042 -5.139,5.5729 -0.80543,1.6221 -1.7556,5.9572 -2.0841,9.5092 z m -131.83,40.477 c 1.3303,-0.43267 5.7244,-0.30991 7.9211,0.2213 1.8493,0.44725 2.094,0.55987 1.583,0.729 -1.1651,0.38566 -6.0796,0.21479 -8.116,-0.28215 -1.6204,-0.3955 -1.8648,-0.5131 -1.3881,-0.66815 z m 6.5929,-6.7917 c 7.6135,-5.0154 10.859,-7.0261 11.222,-6.952 0.17614,0.036 1.2293,-0.31676 2.3404,-0.78386 1.1111,-0.4671 2.087,-0.74803 2.1688,-0.62428 0.2853,0.4317 -12.451,8.4908 -16.253,10.284 -6.5923,3.1099 -6.4775,2.6866 0.52187,-1.9242 z m 5.5229,5.467 c 2.2442,-3.9024 6.0589,-7.2937 11.428,-10.159 2.5015,-1.3352 7.5736,-3.3786 10.078,-4.0602 1.0615,-0.28888 1.9494,-0.62014 1.9731,-0.73609 0.02369,-0.11599 0.12288,-1.522 0.22044,-3.1246 0.28172,-4.6275 1.368,-6.9238 4.0559,-8.574 3.2345,-1.9857 6.6121,-0.87469 10.057,3.308 2.0506,2.4897 4.5583,7.5584 5.5731,11.264 0.28744,1.0498 0.61086,1.4345 2.3693,2.8187 3.7883,2.982 7.2221,7.4515 8.9999,11.714 0.8877,2.1285 2.023,6.4715 1.7951,6.8667 -0.0875,0.15179 -0.55748,-0.51521 -1.0442,-1.4822 -1.9597,-3.8932 -4.6201,-7.508 -7.6623,-10.411 -2.3867,-2.2778 -2.9613,-2.5183 -2.9381,-1.2295 0.0087,0.48448 -0.16575,1.7552 -0.38778,2.8238 -0.35504,1.7087 -0.55013,2.1185 -1.6185,3.3995 -2.82,3.3814 -6.4629,4.4718 -13.758,4.1182 -4.1534,-0.20137 -5.1897,0.0548 -9.0257,2.231 -3.9685,2.2513 -5.7443,2.9319 -9.1489,3.5062 -6.6625,1.1239 -11.197,-0.73468 -12.415,-5.0885 -0.46266,-1.6538 0.2228,-5.0527 1.4489,-7.1848 z m 3.0564,6.7356 c 1.7844,2.7001 8.2628,2.1674 13.953,-1.1474 5.9172,-3.4469 6.837,-3.6892 12.712,-3.3488 5.7465,0.33303 7.6822,-0.0823 9.5833,-2.0562 0.82132,-0.8528 1.0676,-1.3315 1.3194,-2.5647 0.3496,-1.712 0.28641,-4.8539 -0.10746,-5.3443 -0.54318,-0.67636 -4.0025,-1.944 -6.9244,-2.5374 -2.6966,-0.54759 -6.6779,-0.83004 -7.4909,-0.53129 -0.2221,0.0816 -0.55024,1.509 -1.0847,4.7185 -0.90722,5.448 -1.1299,5.386 -1.3921,-0.38711 -0.08851,-1.9489 -0.23719,-3.6751 -0.33039,-3.8361 -0.45248,-0.78146 -7.8566,2.0464 -11.83,4.5182 -2.808,1.7469 -4.9001,3.5399 -6.4951,5.5664 -1.1903,1.5123 -1.7208,2.6414 -2.1513,4.5784 -0.29316,1.3191 -0.26372,1.6123 0.23817,2.3718 z m 23.72,-22.012 c 0.12046,0.11329 1.2845,0.21495 2.5868,0.22587 1.5635,0.0131 3.5779,0.27076 5.9301,0.75857 1.9593,0.40622 3.5737,0.68281 3.5876,0.61451 0.07587,-0.37155 -1.4481,-3.1746 -2.7794,-5.1121 -1.6066,-2.3382 -3.0785,-3.8137 -4.3504,-4.3609 -0.90531,-0.38951 -2.0589,0.083 -2.9824,1.2216 -0.92683,1.1427 -2.4484,6.2232 -1.9923,6.6524 z"
     style="fill:url(#linearGradient823);stroke-width:0.26458001;fill-opacity:1"
     id="path2"
     inkscape:connector-curvature="0"
     sodipodi:nodetypes="ccccccccccccccccccccccccccccccccccccccccccccccccccccccccccccccccccccccccccccccccccccccccccscccccccccccccccccccccccccccccccccccccccccccccscccccsccccccccccccccccccccccccccccccccccccccccccccccccccccccccccsccccsccccccccccccccccccccccccccccccccscccccccccccccccccccccccccccccccccccccccccccccccccsccccccccccccccccccccccccccccsccsccccccccccccccsccccccccccccccccccccccccccccccccccscccccccccccccccc" />
</svg>
