<svg width="210mm" height="297mm" version="1.1" viewBox="0 0 210 200" xmlns="http://www.w3.org/2000/svg">
 <defs>
  <clipPath id="f">
   <path d="m0 500h500v-500h-500z"/>
  </clipPath>
  <clipPath id="d">
   <path d="m50.586 442h398.83v-304h-398.83z"/>
  </clipPath>
  <clipPath id="e">
   <path d="m166.5 133h167v-38h-167z"/>
  </clipPath>
  <clipPath id="c">
   <path d="m62.256 295.2h18.311v-18.313h-18.311z"/>
  </clipPath>
  <linearGradient id="a" x1="29.851" x2="349.49" y1="253.62" y2="-123.08" gradientTransform="matrix(.29058 -.9457 .96813 .29058 -98.962 342.26)" gradientUnits="userSpaceOnUse">
   <stop style="stop-color:#afc6f5" offset="0"/>
   <stop style="stop-color:#af05f5;stop-opacity:0" offset="1"/>
  </linearGradient>
  <linearGradient id="b" x1="29.851" x2="349.49" y1="253.62" y2="-123.08" gradientTransform="matrix(.19026 -.845 .85313 .19478 -52.335 336.74)" gradientUnits="userSpaceOnUse">
   <stop style="stop-color:#afc6f5" offset="0"/>
   <stop style="stop-color:#af05f5;stop-opacity:0" offset="1"/>
  </linearGradient>
 </defs>
 <g transform="matrix(.34575 0 0 -.34983 19.37 201.13)">
  <path d="m-11.241 390.5c-68.635-141.3-38.996-371.67-27.168-469.45l557.46 3.6473s61.054 439.61-89.048 526.65c-105.89 72.229-230.82 65.989-338.29 30.723-43.816-14.378-82.974-50.434-102.95-91.57z" style="fill:url(#a)"/>
  <path d="m26.362 373.55c-68.033-118.99-52.257-306.16-52.158-406.76 0 0 281 2.7505 363.41 96.173 76.396 86.606 147.93 272.28 43.442 342.01-79.991 53.381-174.93 64.191-260.1 42.353-38.682-9.9182-74.829-39.218-94.59-73.779z" style="fill:url(#b);stroke-width:.87061"/>
  <g transform="translate(-50.958 -10.792)" clip-path="url(#f)">
   <g clip-path="url(#d)" style="opacity:.39999">
    <g transform="translate(297.08,435.65)">
     <path d="m0 0c-52.963-9.308-103.39-29.006-154.98-44.425-34.093-10.19-85.478-13.316-91.029-58.011-1.663-13.386 1.132-26.913 4.622-39.943 19.843-74.08 66.153-133.38 144.36-147.66 45.8-8.363 94.174-13.74 138.16 5.392 49.652 21.596 85.294 66.88 101.06 117.99 14.647 47.495 18.64 122.91-24.489 157.64-24.51 19.74-54.826 15.676-84.021 13.357-11.364-0.902-22.582-2.397-33.688-4.349" style="fill:#fff"/>
    </g>
   </g>
   <g transform="translate(379.6,104.88)">
    <path d="m0 0c-1.587 0-2.879-1.291-2.879-2.878s1.292-2.879 2.879-2.879 2.878 1.292 2.878 2.879-1.291 2.878-2.878 2.878m0-7.639c-2.625 0-4.761 2.135-4.761 4.761 0 2.624 2.136 4.76 4.761 4.76s4.761-2.136 4.761-4.76c0-2.626-2.136-4.761-4.761-4.761" style="fill:#fff"/>
   </g>
   <g transform="translate(433.56,299.84)">
    <path d="m0 0c-1.564 0-2.839-1.273-2.839-2.838s1.275-2.839 2.839-2.839c1.565 0 2.839 1.274 2.839 2.839s-1.274 2.838-2.839 2.838m0-7.534c-2.589 0-4.695 2.107-4.695 4.696 0 2.588 2.106 4.695 4.695 4.695 2.59 0 4.695-2.107 4.695-4.695 0-2.589-2.105-4.696-4.695-4.696" style="fill:#f7f5ef"/>
   </g>
   <g transform="translate(68,119)">
    <path d="m0 0c-1.565 0-2.839-1.273-2.839-2.839 0-1.565 1.274-2.839 2.839-2.839s2.839 1.274 2.839 2.839c0 1.566-1.274 2.839-2.839 2.839m0-7.534c-2.589 0-4.695 2.106-4.695 4.695s2.106 4.695 4.695 4.695 4.695-2.106 4.695-4.695-2.106-4.695-4.695-4.695" style="fill:#f7f5ef"/>
   </g>
   <g transform="translate(430.84,391.84)">
    <path d="m0 0c-1.565 0-2.839-1.273-2.839-2.838s1.274-2.839 2.839-2.839 2.839 1.274 2.839 2.839-1.274 2.838-2.839 2.838m0-7.534c-2.589 0-4.695 2.107-4.695 4.696 0 2.588 2.106 4.695 4.695 4.695s4.695-2.107 4.695-4.695c0-2.589-2.106-4.696-4.695-4.696" style="fill:#f7f5ef"/>
   </g>
   <g transform="translate(150,122)">
    <path d="m0 0c-1.565 0-2.839-1.273-2.839-2.839 0-1.564 1.274-2.838 2.839-2.838s2.839 1.274 2.839 2.838c0 1.566-1.274 2.839-2.839 2.839m0-7.534c-2.589 0-4.695 2.106-4.695 4.695s2.106 4.695 4.695 4.695 4.695-2.106 4.695-4.695-2.106-4.695-4.695-4.695" style="fill:#f7f5ef"/>
   </g>
   <g transform="translate(447.77,229.47)">
    <path d="m0 0c-1.362 0-2.47-1.108-2.47-2.47s1.108-2.47 2.47-2.47c1.361 0 2.47 1.108 2.47 2.47s-1.109 2.47-2.47 2.47m0-6.556c-2.253 0-4.086 1.833-4.086 4.086 0 2.252 1.833 4.085 4.086 4.085s4.086-1.833 4.086-4.085c0-2.253-1.833-4.086-4.086-4.086" style="fill:#3878ff"/>
   </g>
   <g transform="translate(118.11,94.294)">
    <path d="m0 0h-1.706v1.706c0 0.665-0.539 1.204-1.204 1.204s-1.204-0.539-1.204-1.204v-1.706h-1.706c-0.665 0-1.204-0.539-1.204-1.204s0.539-1.204 1.204-1.204h1.706v-1.706c0-0.665 0.539-1.204 1.204-1.204s1.204 0.539 1.204 1.204v1.706h1.706c0.665 0 1.204 0.539 1.204 1.204s-0.539 1.204-1.204 1.204" style="fill:#3878ff"/>
   </g>
   <g transform="translate(64.425,401.29)">
    <path d="m0 0h-1.706v1.706c0 0.665-0.539 1.204-1.204 1.204s-1.204-0.539-1.204-1.204v-1.706h-1.706c-0.665 0-1.204-0.539-1.204-1.204 0-0.666 0.539-1.205 1.204-1.205h1.706v-1.705c0-0.666 0.539-1.205 1.204-1.205s1.204 0.539 1.204 1.205v1.705h1.706c0.666 0 1.204 0.539 1.204 1.205 0 0.665-0.538 1.204-1.204 1.204" style="fill:#f7f5ef"/>
   </g>
   <g transform="translate(211.06,414.66)">
    <path d="m0 0h-1.706v1.706c0 0.665-0.539 1.204-1.204 1.204s-1.204-0.539-1.204-1.204v-1.706h-1.706c-0.665 0-1.204-0.539-1.204-1.205 0-0.665 0.539-1.204 1.204-1.204h1.706v-1.705c0-0.666 0.539-1.204 1.204-1.204s1.204 0.538 1.204 1.204v1.705h1.706c0.665 0 1.204 0.539 1.204 1.204 0 0.666-0.539 1.205-1.204 1.205" style="fill:#3878ff"/>
   </g>
   <g transform="translate(449.82,342)">
    <path d="m0 0h-1.706v1.706c0 0.665-0.539 1.204-1.204 1.204s-1.204-0.539-1.204-1.204v-1.706h-1.706c-0.665 0-1.204-0.539-1.204-1.204s0.539-1.204 1.204-1.204h1.706v-1.706c0-0.665 0.539-1.204 1.204-1.204s1.204 0.539 1.204 1.204v1.706h1.706c0.665 0 1.204 0.539 1.204 1.204s-0.539 1.204-1.204 1.204" style="fill:#3878ff"/>
   </g>
   <path d="m406.23 142.11h-301.46v216.52h301.46z" style="fill:#fbfeff"/>
   <path d="m406.23 253.81h-301.46v104.82h301.46z" style="fill:#7b5de2"/>
   <g transform="translate(170.5,289.14)">
    <path d="m0 0h-29.399c-4.381 0-7.933-3.552-7.933-7.933s3.552-7.933 7.933-7.933h29.399c4.381 0 7.933 3.552 7.933 7.933s-3.552 7.933-7.933 7.933" style="fill:#f0c53b"/>
   </g>
   <path d="m194.01 164.03h-64.195v72.97h64.195z" style="fill:#dcdeef"/>
   <g transform="translate(178.54,209.75)">
    <path d="m0 0c0-9.183-7.444-16.626-16.626-16.626s-16.626 7.443-16.626 16.626c0 9.182 7.444 16.626 16.626 16.626s16.626-7.444 16.626-16.626" style="fill:#fbfeff"/>
   </g>
   <path d="m287.6 164.03h-64.195v72.97h64.195z" style="fill:#dcdeef"/>
   <g transform="translate(272.13,209.75)">
    <path d="m0 0c0-9.183-7.443-16.626-16.626-16.626-9.182 0-16.626 7.443-16.626 16.626 0 9.182 7.444 16.626 16.626 16.626 9.183 0 16.626-7.444 16.626-16.626" style="fill:#fbfeff"/>
   </g>
   <path d="m381.19 164.03h-64.194v72.97h64.194z" style="fill:#dcdeef"/>
   <g transform="translate(365.71,209.75)">
    <path d="m0 0c0-9.183-7.443-16.626-16.625-16.626-9.183 0-16.627 7.443-16.627 16.626 0 9.182 7.444 16.626 16.627 16.626 9.182 0 16.625-7.444 16.625-16.626" style="fill:#fbfeff"/>
   </g>
   <path d="m249.24 326.47h-116.07v9.264h116.07z" style="fill:#fbfeff"/>
   <path d="m211.66 306.43h-78.493v9.264h78.493z" style="fill:#fbfeff"/>
   <path d="m406.23 368h-301.46v-9.372h301.46z" style="fill:#6198ee"/>
   <g transform="translate(117.27,363.03)">
    <path d="m0 0c0-1.568-1.271-2.838-2.839-2.838s-2.839 1.27-2.839 2.838 1.271 2.839 2.839 2.839 2.839-1.271 2.839-2.839" style="fill:#fbfeff"/>
   </g>
   <g transform="translate(125.94,363.03)">
    <path d="m0 0c0-1.568-1.271-2.838-2.839-2.838s-2.838 1.27-2.838 2.838 1.27 2.839 2.838 2.839 2.839-1.271 2.839-2.839" style="fill:#fbfeff"/>
   </g>
   <g transform="translate(134.62,363.03)">
    <path d="m0 0c0-1.568-1.271-2.838-2.839-2.838s-2.839 1.27-2.839 2.838 1.271 2.839 2.839 2.839 2.839-1.271 2.839-2.839" style="fill:#fbfeff"/>
   </g>
   <path d="m381.68 272.91h-99.442v65.504h99.442z" style="fill:#fbfeff"/>
   <path d="m166.3 279.15h-20.75v3.851h20.75z" style="fill:#fbfeff"/>
   <g transform="translate(344.61,310.83)">
    <path d="m0 0c0-8.635-7-15.634-15.634-15.634-8.635 0-15.635 6.999-15.635 15.634 0 8.634 7 15.634 15.635 15.634 8.634 0 15.634-7 15.634-15.634" style="fill:#f0c53b"/>
   </g>
   <g transform="translate(311.07,322.75)">
    <path d="m0 0-28.838-49.838h56.546z" style="fill:#dcdeef"/>
   </g>
   <g transform="translate(353.97,307.96)">
    <path d="m0 0-28.837-35.053h56.546z" style="fill:#dcdeef"/>
   </g>
   <g transform="translate(267.57,377.16)">
    <path d="m0 0h-31.148c-0.645 0-1.168 0.523-1.168 1.168v31.148c0 0.645 0.523 1.168 1.168 1.168h31.148c0.645 0 1.168-0.523 1.168-1.168v-31.148c0-0.645-0.523-1.168-1.168-1.168" style="fill:#0a5de2"/>
   </g>
   <g transform="translate(257.68,402.67)">
    <path d="m0 0c2.81-3.997 1.848-9.514-2.148-12.324-3.997-2.811-9.515-1.849-12.325 2.147-2.81 3.997-1.848 9.514 2.148 12.325 3.997 2.81 9.514 1.848 12.325-2.148" style="fill:#0a5de2"/>
   </g>
   <g transform="translate(256.15,401.6)">
    <path d="m0 0c2.22-3.156 1.46-7.514-1.696-9.733-3.157-2.22-7.514-1.46-9.734 1.696-2.219 3.156-1.46 7.514 1.697 9.733 3.156 2.22 7.513 1.46 9.733-1.696" style="fill:#0a5de2"/>
   </g>
   <g transform="translate(262.41,382.68)">
    <path d="m0 0-1.992-1.401-6.548 9.311 1.993 1.401z" style="fill:#0a5de2"/>
   </g>
   <g transform="translate(328.9,377.16)">
    <path d="m0 0h-31.148c-0.645 0-1.168 0.523-1.168 1.168v31.148c0 0.645 0.523 1.168 1.168 1.168h31.148c0.645 0 1.168-0.523 1.168-1.168v-31.148c0-0.645-0.523-1.168-1.168-1.168" style="fill:#0a5de2"/>
   </g>
   <path d="m307.35 385.96h-1.07v15.885h1.07z" style="fill:#0a5de2"/>
   <path d="m322.13 388.63h-13.619v4.043h13.619z" style="fill:#0a5de2"/>
   <path d="m318.55 394.59h-10.042v4.043h10.042z" style="fill:#0a5de2"/>
   <g transform="translate(376.5,377.16)">
    <path d="m0 0h31.148c0.645 0 1.168 0.523 1.168 1.168v31.148c0 0.645-0.523 1.168-1.168 1.168h-31.148c-0.645 0-1.168-0.523-1.168-1.168v-31.148c0-0.645 0.523-1.168 1.168-1.168" style="fill:#0a5de2"/>
   </g>
   <path d="m398.06 385.96h1.07v15.885h-1.07z" style="fill:#0a5de2"/>
   <path d="m383.28 388.63h13.618v4.043h-13.618z" style="fill:#0a5de2"/>
   <path d="m386.85 394.59h10.042v4.043h-10.042z" style="fill:#0a5de2"/>
   <g transform="translate(367.32,377.16)">
    <path d="m0 0h-31.147c-0.646 0-1.168 0.523-1.168 1.168v31.148c0 0.645 0.522 1.168 1.168 1.168h31.147c0.646 0 1.168-0.523 1.168-1.168v-31.148c0-0.645-0.522-1.168-1.168-1.168" style="fill:#0a5de2"/>
   </g>
   <path d="m352.28 385.96h-1.071v15.885h1.071z" style="fill:#0a5de2"/>
   <path d="m358.56 388.63h-13.619v4.043h13.619z" style="fill:#0a5de2"/>
   <path d="m356.77 394.59h-10.042v4.043h10.042z" style="fill:#0a5de2"/>
   <g transform="translate(141.58,377.16)">
    <path d="m0 0h-31.148c-0.645 0-1.168 0.523-1.168 1.168v31.148c0 0.645 0.523 1.168 1.168 1.168h31.148c0.645 0 1.168-0.523 1.168-1.168v-31.148c0-0.645-0.523-1.168-1.168-1.168" style="fill:#0a5de2"/>
   </g>
   <g transform="translate(118.44,393.25)">
    <path d="m0 0 5.688 5.687 1.798-1.798c0.154-0.146 0.3-0.146 0.599-0.146 0.3 0 0.446 0 0.599 0.146 0.146 0.299 0.146 0.745-0.153 1.045l-1.792 1.798 0.601 0.601 7.486-7.333zm0 9.129c0 0.148-0.146 0.448-0.146 0.601 0 0.146 0.146 0.446 0.146 0.599 0.3 0.146 0.898 0.146 1.198 0l3.59-3.597-1.191-1.045zm7.486 0.302-1.798-1.645-3.444 3.589c-0.9 0.745-2.39 0.745-3.29 0-0.299-0.447-0.599-1.046-0.599-1.645 0-0.601 0.3-1.2 0.599-1.645l3.589-3.597-5.687-5.542 9.584-9.576 10.477 10.63z" style="fill:#0a5de2"/>
   </g>
   <g transform="translate(136.72,386.9)">
    <path d="m0 0c-0.016-1.297-1.082-2.336-2.379-2.32-1.298 0.016-2.337 1.082-2.32 2.38 0.016 1.297 2.238 3.865 2.397 3.702 0.906-0.929 2.319-2.464 2.302-3.762" style="fill:#0a5de2"/>
   </g>
   <g transform="translate(89.045,329.85)">
    <path d="m0 0h-31.148c-0.645 0-1.168 0.522-1.168 1.167v31.149c0 0.645 0.523 1.168 1.168 1.168h31.148c0.645 0 1.168-0.523 1.168-1.168v-31.149c0-0.645-0.523-1.167-1.168-1.167" style="fill:#0a5de2"/>
   </g>
   <g transform="translate(74.95,340.92)">
    <path d="m0 0c0-0.614 0.028-1.093 0.083-1.437 0.057-0.345 0.183-0.61 0.377-0.796 0.196-0.186 0.47-0.321 0.824-0.405 0.353-0.083 0.828-0.154 1.424-0.209 0.111-0.019 0.199-0.079 0.265-0.181 0.065-0.103 0.098-0.21 0.098-0.322 0-0.111-0.033-0.213-0.098-0.307-0.066-0.093-0.163-0.139-0.293-0.139-0.744 0-1.456 0.038-2.136 0.111-0.679 0.075-1.354 0.113-2.023 0.113-0.708 0-1.438-0.038-2.191-0.113-0.755-0.073-1.438-0.111-2.052-0.111-0.112 0-0.195 0.046-0.252 0.139-0.055 0.094-0.083 0.196-0.083 0.307 0 0.112 0.028 0.219 0.083 0.322 0.057 0.102 0.14 0.162 0.252 0.181 0.576 0.055 1.037 0.126 1.382 0.209 0.343 0.084 0.613 0.219 0.809 0.405 0.195 0.186 0.325 0.451 0.391 0.796 0.065 0.344 0.098 0.823 0.098 1.437v12.394c0 0.689-0.173 1.121-0.517 1.298-0.345 0.177-0.926 0.265-1.744 0.265-0.689 0-1.257-0.051-1.703-0.153-0.447-0.102-0.815-0.289-1.103-0.559-0.288-0.269-0.521-0.637-0.698-1.102-0.176-0.465-0.339-1.071-0.488-1.814-0.019-0.112-0.08-0.186-0.182-0.224-0.102-0.037-0.205-0.052-0.307-0.042s-0.195 0.042-0.279 0.098-0.125 0.121-0.125 0.195c0.073 0.688 0.116 1.392 0.125 2.107 9e-3 0.717-0.033 1.429-0.125 2.137 0 0.204 0.129 0.343 0.39 0.418 0.26 0.074 0.549 0.111 0.866 0.111h14.933c0.354 0 0.646-0.032 0.88-0.097 0.232-0.065 0.348-0.2 0.348-0.405-0.037-0.223-0.069-0.498-0.097-0.823-0.028-0.326-0.042-0.684-0.042-1.075s0.014-0.791 0.042-1.2c0.028-0.41 0.06-0.8 0.097-1.173 0-0.074-0.046-0.144-0.139-0.209s-0.195-0.103-0.307-0.112c-0.112-0.01-0.219 5e-3 -0.321 0.043-0.102 0.036-0.163 0.111-0.182 0.222-0.111 0.744-0.26 1.354-0.446 1.829s-0.433 0.847-0.739 1.116c-0.307 0.27-0.684 0.457-1.131 0.559-0.446 0.102-0.977 0.153-1.591 0.153-0.837 0-1.443-0.088-1.815-0.265s-0.558-0.609-0.558-1.298z" style="fill:#0a5de2"/>
   </g>
   <g transform="translate(89.045,145.5)">
    <path d="m0 0h-31.148c-0.645 0-1.168 0.523-1.168 1.168v31.148c0 0.645 0.523 1.168 1.168 1.168h31.148c0.645 0 1.168-0.523 1.168-1.168v-31.148c0-0.645-0.523-1.168-1.168-1.168" style="fill:#0a5de2"/>
   </g>
   <g transform="translate(71.037,169.82)">
    <path d="m0 0c0-2.891-2.344-5.234-5.235-5.234-2.89 0-5.234 2.343-5.234 5.234 0 2.892 2.344 5.235 5.234 5.235 2.891 0 5.235-2.343 5.235-5.235" style="fill:#0a5de2"/>
   </g>
   <g transform="translate(80.763,174.65)">
    <path d="m0 0-5.569-9.646h11.138z" style="fill:#0a5de2"/>
   </g>
   <path d="m70.762 149.8h-9.918v9.918h9.918z" style="fill:#0a5de2"/>
   <g transform="translate(80.763,160.1)">
    <path d="m0 0-5.611-4.076 2.143-6.597h6.936l2.143 6.597z" style="fill:#0a5de2"/>
   </g>
   <g transform="translate(89.045,268.4)">
    <path d="m0 0h-31.148c-0.645 0-1.168 0.523-1.168 1.168v31.148c0 0.645 0.523 1.168 1.168 1.168h31.148c0.645 0 1.168-0.523 1.168-1.168v-31.148c0-0.645-0.523-1.168-1.168-1.168" style="fill:#0a5de2"/>
   </g>
   <g transform="translate(82.328,279.65)">
    <path d="m0 0-4.858 4.858 3.466 2.002c0.27 0.156 0.428 0.453 0.405 0.765-0.022 0.312-0.221 0.584-0.512 0.7l-15.454 6.165c-0.303 0.121-0.649 0.05-0.88-0.181-0.23-0.23-0.302-0.577-0.181-0.879l6.164-15.457c0.116-0.29 0.388-0.49 0.7-0.512 0.312-0.023 0.609 0.135 0.765 0.406l2.002 3.466 4.858-4.858c0.153-0.153 0.361-0.24 0.577-0.24 0.217 0 0.424 0.087 0.577 0.24l2.371 2.371c0.318 0.318 0.318 0.835 0 1.154" style="fill:#0a5de2"/>
   </g>
   <g transform="translate(89.045,206.95)">
    <path d="m0 0h-31.148c-0.645 0-1.168 0.523-1.168 1.168v31.148c0 0.646 0.523 1.168 1.168 1.168h31.148c0.645 0 1.168-0.522 1.168-1.168v-31.148c0-0.645-0.523-1.168-1.168-1.168" style="fill:#0a5de2"/>
   </g>
   <g transform="translate(78.773,225.79)">
    <path d="m0 0-6.462 7.702-3.023-1.831 4.356-6.943c0.587 0.104 1.203-0.149 1.53-0.69 0.425-0.701 0.201-1.614-0.501-2.039-0.702-0.426-1.615-0.201-2.04 0.501-0.314 0.519-0.272 1.154 0.056 1.621l-4.439 6.921-2.679-1.623 3.834-9.294 10.363-6.536z" style="fill:#0a5de2"/>
   </g>
   <g transform="translate(265.57,378.16)">
    <path d="m0 0h-31.148c-0.645 0-1.168 0.522-1.168 1.167v31.149c0 0.645 0.523 1.168 1.168 1.168h31.148c0.645 0 1.168-0.523 1.168-1.168v-31.149c0-0.645-0.523-1.167-1.168-1.167" style="fill:#f7f5ef"/>
   </g>
   <g transform="translate(255.67,403.67)">
    <path d="m0 0c2.811-3.997 1.849-9.514-2.147-12.324-3.997-2.81-9.515-1.849-12.325 2.148-2.81 3.996-1.848 9.514 2.148 12.324s9.514 1.848 12.324-2.148" style="fill:#0a5de2"/>
   </g>
   <g transform="translate(254.15,402.6)">
    <path d="m0 0c2.22-3.156 1.46-7.514-1.696-9.733-3.157-2.22-7.515-1.46-9.734 1.696s-1.46 7.514 1.696 9.734c3.156 2.219 7.514 1.46 9.734-1.697" style="fill:#f2f3f9"/>
   </g>
   <g transform="translate(260.41,383.68)">
    <path d="m0 0-1.992-1.401-6.548 9.311 1.993 1.401z" style="fill:#0a5de2"/>
   </g>
   <g transform="translate(326.9,378.16)">
    <path d="m0 0h-31.148c-0.646 0-1.168 0.522-1.168 1.167v31.149c0 0.645 0.522 1.168 1.168 1.168h31.148c0.645 0 1.168-0.523 1.168-1.168v-31.149c0-0.645-0.523-1.167-1.168-1.167" style="fill:#f7f5ef"/>
   </g>
   <path d="m305.35 386.96h-1.07v15.885h1.07z" style="fill:#afc6f5"/>
   <path d="m320.13 389.63h-13.619v4.043h13.619z" style="fill:#0a5de2"/>
   <path d="m316.55 395.59h-10.042v4.043h10.042z" style="fill:#0a5de2"/>
   <g transform="translate(374.5,378.16)">
    <path d="m0 0h31.148c0.645 0 1.168 0.522 1.168 1.167v31.149c0 0.645-0.523 1.168-1.168 1.168h-31.148c-0.646 0-1.168-0.523-1.168-1.168v-31.149c0-0.645 0.522-1.167 1.168-1.167" style="fill:#f7f5ef"/>
   </g>
   <path d="m396.06 386.96h1.071v15.885h-1.071z" style="fill:#afc6f5"/>
   <path d="m381.28 389.63h13.619v4.043h-13.619z" style="fill:#0a5de2"/>
   <path d="m384.85 395.59h10.042v4.043h-10.042z" style="fill:#0a5de2"/>
   <g transform="translate(365.32,378.16)">
    <path d="m0 0h-31.147c-0.646 0-1.168 0.522-1.168 1.167v31.149c0 0.645 0.522 1.168 1.168 1.168h31.147c0.646 0 1.168-0.523 1.168-1.168v-31.149c0-0.645-0.522-1.167-1.168-1.167" style="fill:#f7f5ef"/>
   </g>
   <path d="m350.28 386.96h-1.071v15.885h1.071z" style="fill:#afc6f5"/>
   <path d="m356.56 389.63h-13.619v4.043h13.619z" style="fill:#0a5de2"/>
   <path d="m354.77 395.59h-10.042v4.043h10.042z" style="fill:#a55de2"/>
   <g transform="translate(139.58,378.16)">
    <path d="m0 0h-31.148c-0.645 0-1.168 0.522-1.168 1.167v31.149c0 0.645 0.523 1.168 1.168 1.168h31.148c0.645 0 1.168-0.523 1.168-1.168v-31.149c0-0.645-0.523-1.167-1.168-1.167" style="fill:#f7f5ef"/>
   </g>
   <g transform="translate(116.44,394.25)">
    <path d="m0 0 5.687 5.687 1.799-1.798c0.154-0.146 0.3-0.146 0.599-0.146s0.445 0 0.599 0.146c0.146 0.299 0.146 0.745-0.154 1.045l-1.791 1.798 0.601 0.601 7.486-7.333zm0 9.129c0 0.148-0.146 0.448-0.146 0.601 0 0.146 0.146 0.446 0.146 0.599 0.299 0.146 0.898 0.146 1.198 0l3.59-3.597-1.191-1.045zm7.486 0.302-1.799-1.645-3.443 3.589c-0.9 0.745-2.39 0.745-3.29 0-0.3-0.447-0.599-1.046-0.599-1.645 0-0.601 0.299-1.199 0.599-1.645l3.589-3.597-5.687-5.542 9.584-9.576 10.477 10.63z" style="fill:#0a5de2"/>
   </g>
   <g transform="translate(134.72,387.9)">
    <path d="m0 0c-0.017-1.297-1.082-2.336-2.379-2.32-1.298 0.017-2.337 1.082-2.32 2.38 0.016 1.297 2.237 3.865 2.396 3.702 0.907-0.929 2.32-2.464 2.303-3.762" style="fill:#0a5de2"/>
   </g>
   <g transform="translate(190.78,377.16)">
    <path d="m0 0h-31.148c-0.645 0-1.168 0.523-1.168 1.168v31.148c0 0.645 0.523 1.168 1.168 1.168h31.148c0.645 0 1.168-0.523 1.168-1.168v-31.148c0-0.645-0.523-1.168-1.168-1.168" style="fill:#0a5de2"/>
   </g>
   <g transform="translate(167.64,393.25)">
    <path d="m0 0 5.688 5.687 1.798-1.798c0.154-0.146 0.3-0.146 0.599-0.146 0.3 0 0.446 0 0.599 0.146 0.146 0.299 0.146 0.745-0.153 1.045l-1.791 1.798 0.6 0.601 7.487-7.333zm0 9.129c0 0.148-0.146 0.448-0.146 0.601 0 0.146 0.146 0.446 0.146 0.599 0.3 0.146 0.898 0.146 1.198 0l3.59-3.597-1.191-1.045zm7.486 0.302-1.798-1.645-3.444 3.589c-0.9 0.745-2.39 0.745-3.29 0-0.299-0.447-0.599-1.046-0.599-1.645 0-0.601 0.3-1.2 0.599-1.645l3.589-3.597-5.687-5.542 9.584-9.576 10.477 10.63z" style="fill:#0a5de2"/>
   </g>
   <g transform="translate(185.92,386.9)">
    <path d="m0 0c-0.016-1.297-1.082-2.336-2.379-2.32-1.298 0.016-2.337 1.082-2.32 2.38 0.016 1.297 2.238 3.865 2.397 3.702 0.906-0.929 2.319-2.464 2.302-3.762" style="fill:#0a5de2"/>
   </g>
   <g transform="translate(188.78,378.16)">
    <path d="m0 0h-31.148c-0.645 0-1.168 0.522-1.168 1.167v31.149c0 0.645 0.523 1.168 1.168 1.168h31.148c0.645 0 1.168-0.523 1.168-1.168v-31.149c0-0.645-0.523-1.167-1.168-1.167" style="fill:#f7f5ef"/>
   </g>
   <path d="m184.51 384.94h-21.234v19.346h21.234z" style="fill:none;stroke-dasharray:3;stroke-miterlimit:10;stroke:#0a5de2"/>
   <g transform="translate(87.045,330.85)">
    <path d="m0 0h-31.148c-0.645 0-1.168 0.523-1.168 1.168v31.148c0 0.645 0.523 1.168 1.168 1.168h31.148c0.645 0 1.167-0.523 1.167-1.168v-31.148c0-0.645-0.522-1.168-1.167-1.168" style="fill:#f7f5ef"/>
   </g>
   <g transform="translate(72.95,341.92)">
    <path d="m0 0c0-0.614 0.028-1.093 0.083-1.437 0.057-0.345 0.183-0.61 0.377-0.795 0.196-0.186 0.47-0.322 0.824-0.406 0.353-0.083 0.828-0.154 1.424-0.209 0.111-0.019 0.199-0.079 0.265-0.181 0.065-0.103 0.098-0.21 0.098-0.322 0-0.111-0.033-0.213-0.098-0.307-0.066-0.093-0.163-0.139-0.293-0.139-0.744 0-1.456 0.038-2.136 0.111-0.679 0.075-1.354 0.113-2.023 0.113-0.708 0-1.438-0.038-2.191-0.113-0.755-0.073-1.439-0.111-2.052-0.111-0.112 0-0.195 0.046-0.252 0.139-0.055 0.094-0.083 0.196-0.083 0.307 0 0.112 0.028 0.219 0.083 0.322 0.057 0.102 0.14 0.162 0.252 0.181 0.576 0.055 1.036 0.126 1.381 0.209 0.344 0.084 0.614 0.22 0.81 0.406 0.195 0.185 0.325 0.45 0.39 0.795 0.065 0.344 0.099 0.823 0.099 1.437v12.394c0 0.689-0.173 1.121-0.517 1.298-0.345 0.177-0.926 0.265-1.745 0.265-0.688 0-1.256-0.051-1.702-0.153-0.447-0.102-0.815-0.289-1.103-0.559-0.288-0.269-0.521-0.637-0.698-1.102s-0.339-1.07-0.488-1.814c-0.019-0.112-0.08-0.186-0.182-0.224-0.103-0.037-0.205-0.052-0.307-0.042s-0.195 0.042-0.279 0.098-0.125 0.121-0.125 0.195c0.073 0.688 0.116 1.392 0.125 2.107 9e-3 0.717-0.033 1.429-0.125 2.137 0 0.204 0.129 0.343 0.39 0.418 0.26 0.075 0.549 0.111 0.866 0.111h14.933c0.354 0 0.646-0.032 0.88-0.097 0.232-0.065 0.348-0.2 0.348-0.405-0.037-0.223-0.069-0.498-0.097-0.823-0.028-0.326-0.042-0.684-0.042-1.075s0.014-0.791 0.042-1.2c0.028-0.41 0.06-0.8 0.097-1.173 0-0.074-0.046-0.144-0.139-0.209s-0.195-0.103-0.307-0.112c-0.112-0.01-0.219 5e-3 -0.321 0.043-0.103 0.036-0.163 0.111-0.182 0.222-0.111 0.744-0.26 1.354-0.447 1.829-0.186 0.475-0.432 0.847-0.739 1.116-0.306 0.27-0.683 0.457-1.13 0.559-0.446 0.102-0.977 0.153-1.591 0.153-0.838 0-1.443-0.088-1.815-0.265s-0.558-0.609-0.558-1.298z" style="fill:#0a5de2"/>
   </g>
   <g clip-path="url(#e)" style="opacity:.39999">
    <g transform="translate(333.5,114)">
     <path d="m0 0c0-10.494-37.384-19-83.5-19s-83.5 8.506-83.5 19c0 10.493 37.384 19 83.5 19s83.5-8.507 83.5-19" style="fill:#3878ff"/>
    </g>
   </g>
   <g transform="translate(87.045,146.5)">
    <path d="m0 0h-31.148c-0.645 0-1.168 0.523-1.168 1.168v31.148c0 0.645 0.523 1.168 1.168 1.168h31.148c0.645 0 1.167-0.523 1.167-1.168v-31.148c0-0.645-0.522-1.168-1.167-1.168" style="fill:#f7f5ef"/>
   </g>
   <g transform="translate(69.037,170.82)">
    <path d="m0 0c0-2.891-2.344-5.234-5.235-5.234s-5.235 2.343-5.235 5.234c0 2.892 2.344 5.235 5.235 5.235s5.235-2.343 5.235-5.235" style="fill:#0a5de2"/>
   </g>
   <g transform="translate(78.763,175.65)">
    <path d="m0 0-5.569-9.646h11.138z" style="fill:#0a5de2"/>
   </g>
   <path d="m68.761 150.8h-9.918v9.918h9.918z" style="fill:#0a5de2"/>
   <g transform="translate(78.763,161.1)">
    <path d="m0 0-5.611-4.076 2.143-6.597h6.936l2.143 6.597z" style="fill:#0a5de2"/>
   </g>
   <g transform="translate(87.045,269.4)">
    <path d="m0 0h-31.148c-0.645 0-1.168 0.523-1.168 1.168v31.148c0 0.645 0.523 1.168 1.168 1.168h31.148c0.645 0 1.167-0.523 1.167-1.168v-31.148c0-0.645-0.522-1.168-1.167-1.168" style="fill:#f7f5ef"/>
   </g>
   <g clip-path="url(#c)" style="opacity:.2">
    <g transform="translate(80.328,280.65)">
     <path d="m0 0-4.858 4.858 3.465 2.002c0.271 0.156 0.429 0.454 0.406 0.765-0.022 0.313-0.221 0.584-0.512 0.7l-15.454 6.165c-0.303 0.121-0.649 0.05-0.88-0.181-0.23-0.23-0.302-0.577-0.181-0.879l6.164-15.457c0.116-0.29 0.388-0.49 0.7-0.512 0.312-0.023 0.609 0.135 0.765 0.406l2.002 3.466 4.858-4.858c0.152-0.153 0.36-0.24 0.577-0.24s0.424 0.087 0.577 0.24l2.371 2.371c0.318 0.318 0.318 0.835 0 1.154" style="fill:#0a5de2"/>
    </g>
   </g>
   <g transform="translate(87.045,207.95)">
    <path d="m0 0h-31.148c-0.645 0-1.168 0.523-1.168 1.168v31.148c0 0.646 0.523 1.168 1.168 1.168h31.148c0.645 0 1.167-0.522 1.167-1.168v-31.148c0-0.645-0.522-1.168-1.167-1.168" style="fill:#f7f5ef"/>
   </g>
   <g transform="translate(76.773,226.79)">
    <path d="m0 0-6.462 7.702-3.023-1.831 4.356-6.943c0.587 0.104 1.202-0.149 1.529-0.69 0.426-0.701 0.202-1.614-0.5-2.039-0.702-0.426-1.615-0.201-2.04 0.501-0.314 0.519-0.272 1.154 0.056 1.621l-4.439 6.921-2.679-1.623 3.833-9.294 10.364-6.536z" style="fill:#0a5de2"/>
   </g>
   <g transform="translate(427.28,161.72)">
    <path d="m0 0-10.279 10.28 7.333 4.236c0.573 0.33 0.906 0.96 0.859 1.619-0.048 0.661-0.469 1.235-1.083 1.48l-32.7 13.044c-0.642 0.257-1.374 0.106-1.861-0.382-0.489-0.488-0.64-1.22-0.383-1.861l13.041-32.704c0.246-0.615 0.82-1.036 1.48-1.084s1.29 0.286 1.62 0.859l4.236 7.333 10.279-10.279c0.323-0.324 0.763-0.507 1.221-0.507 0.459 0 0.897 0.183 1.221 0.507l5.016 5.017c0.674 0.673 0.674 1.767 0 2.442" style="fill:#915de2"/>
   </g>
   <g transform="translate(383.45,202.14)">
    <path d="m0 0c-0.753 0.753-1.974 0.753-2.727 0s-0.753-1.975 0-2.727l4.285-4.285c0.376-0.376 0.87-0.565 1.364-0.565 0.492 0 0.986 0.189 1.363 0.565 0.752 0.754 0.752 1.974 0 2.728z" style="fill:#0a5de2"/>
   </g>
   <g transform="translate(384.9,188.81)">
    <path d="m0 0c0 1.064-0.863 1.929-1.928 1.929h-6.059c-1.065 0-1.929-0.865-1.929-1.929 0-1.065 0.863-1.929 1.929-1.929h6.059c1.065 0 1.928 0.864 1.928 1.929" style="fill:#0a5de2"/>
   </g>
   <g transform="translate(394.05,197.96)">
    <path d="m0 0c1.065 0 1.929 0.863 1.929 1.929v6.059c0 1.065-0.864 1.928-1.929 1.928-1.064 0-1.928-0.863-1.928-1.928v-6.06c0-1.065 0.864-1.928 1.928-1.928" style="fill:#0a5de2"/>
   </g>
   <g transform="translate(268.71,131.05)">
    <path d="m0 0-37.642-0.286-0.29 38.276c-0.018 2.26 1.801 4.107 4.061 4.123l29.456 0.225c2.261 0.016 4.106-1.802 4.124-4.062z" style="fill:#f0c53b"/>
   </g>
   <g transform="translate(249.32,165.19)">
    <path d="m0 0c-2.53-0.02-4.597 2.017-4.617 4.547l-0.105 13.926c-3e-3 0.339 0.27 0.618 0.61 0.62l7.933 0.06c0.34 3e-3 0.617-0.27 0.619-0.61l0.107-13.927c0.019-2.53-2.017-4.596-4.547-4.616" style="fill:#f6a091"/>
   </g>
   <g transform="translate(253.86,170.29)">
    <path d="m0 0-0.103 13.44c-1e-3 0.34-0.279 0.614-0.619 0.611l-7.933-0.061c-0.34-2e-3 -0.613-0.28-0.61-0.62l0.102-13.469c1.4-0.437 2.885-0.683 4.429-0.683 1.657 0 3.246 0.282 4.734 0.782" style="fill:#ed897c"/>
   </g>
   <g transform="translate(265.25,186.87)">
    <path d="m0 0c4e-3 0.155 0.012 0.31 0.012 0.466 0 1.383-0.175 2.724-0.502 4.006v1.775c0 8.735-7.147 15.882-15.883 15.882-8.734 0-15.881-7.147-15.881-15.882v-6.247z" style="fill:#241084"/>
   </g>
   <g transform="translate(263.54,191.3)">
    <path d="m0 0v1.532c0 8.056-6.591 14.647-14.647 14.647s-14.646-6.591-14.646-14.647v-6.003c0-0.403 0.047-0.795 0.131-1.174 0.956-7.294 7.191-12.927 14.746-12.927 8.218 0 14.879 6.662 14.879 14.879 0 1.275-0.161 2.512-0.463 3.693" style="fill:#f6a091"/>
   </g>
   <g transform="translate(244.4,184.98)">
    <path d="m0 0c0-0.622-0.504-1.126-1.126-1.126s-1.126 0.504-1.126 1.126 0.504 1.126 1.126 1.126 1.126-0.504 1.126-1.126" style="fill:#241084"/>
   </g>
   <g transform="translate(255.09,184.98)">
    <path d="m0 0c0-0.622-0.505-1.126-1.127-1.126s-1.126 0.504-1.126 1.126 0.504 1.126 1.126 1.126 1.127-0.504 1.127-1.126" style="fill:#241084"/>
   </g>
   <g transform="translate(238.47,185.52)">
    <path d="m0 0c0-2.287-1.854-4.143-4.143-4.143-2.288 0-4.143 1.856-4.143 4.143 0 2.288 1.855 4.144 4.143 4.144 2.289 0 4.143-1.856 4.143-4.144" style="fill:#f6a091"/>
   </g>
   <g transform="translate(267.68,185.52)">
    <path d="m0 0c0-2.287-1.854-4.143-4.143-4.143-2.288 0-4.142 1.856-4.142 4.143 0 2.288 1.854 4.144 4.142 4.144 2.289 0 4.143-1.856 4.143-4.144" style="fill:#f6a091"/>
   </g>
   <g transform="translate(234.23,188.24)">
    <path d="m0 0c-1.397-0.122-2.494-1.293-2.494-2.722 0-1.427 1.097-2.598 2.494-2.72z" style="fill:#ed897c"/>
   </g>
   <g transform="translate(263.26,188.24)">
    <path d="m0 0c1.397-0.122 2.493-1.293 2.493-2.722 0-1.427-1.096-2.598-2.493-2.72z" style="fill:#ed897c"/>
   </g>
   <g transform="translate(259.18,191.3)">
    <path d="m0 0c0.394-1.259 0.967-2.701 2.238-3.054 1.003-0.278 2.043 0.257 2.899 0.85 0.469 0.325 0.959 0.73 1.044 1.295 0.071 0.473-0.163 0.933-0.391 1.354-0.879 1.628-1.779 3.266-3.01 4.647-1.093 1.226-3.059 3.22-4.22 1.116-0.793-1.437 0.993-4.777 1.44-6.208" style="fill:#241084"/>
   </g>
   <g transform="translate(260.72,200.68)">
    <path d="m0 0c-3.236 2.409-7.24 3.84-11.562 3.84l0.171 2.625c-4.302 0-8.459-4.043-11.688-6.434 2.819-3.206 6.948-6.231 11.553-6.231 4.589 0 8.707 3.012 11.526 6.2" style="fill:#241084"/>
   </g>
   <g transform="translate(210.23,138.58)">
    <path d="m0 0c-0.551 0.823-0.723 1.838-0.482 2.799 2.123 8.472 17.337 28.35 17.929 29.237 1.589 2.38 6.181 2.385 6.181 2.385l0.597-13.681-13.677-16.087c-0.899-1.057-1.084-2.547-0.471-3.792l10.803-21.967-5.696-1.595z" style="fill:#f0c53b"/>
   </g>
   <g transform="translate(286.82,139.04)">
    <path d="m0 0c0.437 0.767 0.612 1.665 0.438 2.53-1.661 8.283-15.298 28.151-15.885 29.053-1.566 2.408-6.13 2.639-6.13 2.639l-0.648-13.935 11.764-15.706c0.788-1.054 0.974-2.44 0.489-3.664l-8.908-22.477 5.696-1.594z" style="fill:#f0c53b"/>
   </g>
   <g transform="translate(251.24,119.78)">
    <path d="m0 0c-14.101 0.444-28.212 0.544-42.318 0.299-2.045-0.035-4.123-0.084-6.069-0.714-1.945-0.63-3.772-1.936-4.538-3.831-0.816-2.02-0.284-4.408 0.968-6.19 1.253-1.781 3.137-3.026 5.104-3.958 4.887-2.313 10.392-2.89 15.782-3.296 11.231-0.848 22.506-1.101 33.763-0.756 0.519 1.462 1.5 2.61 2.019 4.073-2.976 2.004-6.131 3.467-9.127 5.441 0.993 3.413 4.135 5.389 4.416 8.932" style="fill:#241084"/>
   </g>
   <g transform="translate(238.74,191.3)">
    <path d="m0 0c-0.394-1.259-0.967-2.701-2.238-3.054-1.004-0.278-2.043 0.257-2.899 0.85-0.469 0.325-0.959 0.73-1.044 1.295-0.071 0.473 0.163 0.933 0.39 1.354 0.879 1.628 1.78 3.266 3.011 4.647 1.093 1.226 3.06 3.22 4.22 1.116 0.793-1.437-0.993-4.777-1.44-6.208" style="fill:#241084"/>
   </g>
   <g transform="translate(248.76,119.78)">
    <path d="m0 0c14.101 0.444 28.213 0.544 42.319 0.299 2.044-0.035 4.123-0.084 6.068-0.714 1.946-0.63 3.773-1.936 4.538-3.831 0.817-2.02 0.284-4.408-0.968-6.19-1.252-1.781-3.136-3.026-5.104-3.958-4.886-2.313-10.392-2.89-15.781-3.296-11.232-0.848-22.507-1.101-33.764-0.756-0.518 1.462-1.5 2.61-2.018 4.073 2.975 2.004 6.131 3.467 9.127 5.441-0.993 3.413-4.135 5.389-4.417 8.932" style="fill:#241084"/>
   </g>
   <g transform="translate(242.15,86.664)">
    <path d="m0 0c2.285 3.511 4.026 7.373 5.144 11.409 0.186 0.673 1.523 2.846 1.538 3.543 0.021 0.983-3.082 2.687-4.399 2.621-1.298-0.063-0.946-3.596-1.235-4.534-0.849-2.761-4.857-6.472-4.996-9.354-0.062-1.297 2.126-3.296 3.948-3.685" style="fill:#241084"/>
   </g>
   <g transform="translate(233.7,117.27)">
    <path d="m0 0c0-2.635-2.135-4.77-4.77-4.77-2.634 0-4.769 2.135-4.769 4.77 0 2.634 2.135 4.77 4.769 4.77 2.635 0 4.77-2.136 4.77-4.77" style="fill:#f6a091"/>
   </g>
   <g transform="translate(275.3,116.41)">
    <path d="m0 0c0.158 2.629-1.846 4.889-4.475 5.047s-4.889-1.845-5.047-4.474c-0.159-2.63 1.845-4.889 4.474-5.048 2.629-0.158 4.889 1.845 5.048 4.475" style="fill:#f6a091"/>
   </g>
   <g transform="translate(228.37,111.66)">
    <path d="m0 0h43.297c1.642 0 3.067 1.131 3.441 2.729l3.658 15.652c0.547 3.033-1.797 5.816-4.879 5.793l-49.595-0.377c-3.082-0.024-5.383-2.842-4.79-5.866l5.539-15.581c0.501-1.409 1.834-2.35 3.329-2.35" style="fill:#fff"/>
   </g>
   <g transform="translate(252.98,121.71)">
    <path d="m0 0c0-2.223-1.952-4.025-4.361-4.025-2.408 0-4.36 1.802-4.36 4.025 0 2.224 1.952 4.025 4.36 4.025 2.409 0 4.361-1.801 4.361-4.025" style="fill:#3878ff"/>
   </g>
   <g transform="translate(262.56,192.65)">
    <path d="m0 0c-1.351 1.389-2.596 2.881-3.72 4.458-0.366 0.514-0.737 1.053-1.281 1.372-0.58 0.34-1.28 0.386-1.951 0.423l-11.397 0.636c-0.246 0.013-0.496 0.027-0.736-0.027-0.279-0.061-0.53-0.209-0.775-0.355-1.545-0.916-3.107-1.847-4.377-3.117 0.099-0.161 0.3-0.25 0.485-0.218-1.082-2.148-2.801-3.824-4.996-4.808 0.319 0.639-0.092 1.377-0.221 2.079-0.165 0.886 0.137 1.786 0.437 2.635 0.307 0.873 0.617 1.744 0.929 2.615 0.666 1.856 1.369 3.752 2.661 5.242 1.514 1.745 3.684 2.755 5.786 3.714 0.577 0.264 1.158 0.529 1.773 0.685 0.901 0.23 1.844 0.222 2.774 0.212 1.557-0.017 3.132-0.036 4.637-0.434 0.914-0.241 1.786-0.617 2.651-1 1.32-0.583 2.636-1.185 3.858-1.954 0.408-0.257 0.811-0.536 1.124-0.903 0.277-0.324 0.477-0.707 0.673-1.086 0.465-0.897 0.929-1.793 1.394-2.689 0.516-0.996 1.035-1.998 1.376-3.066 0.396-1.243 0.544-2.557 0.554-3.861 3e-3 -0.438-0.012-0.891-0.203-1.284-0.19-0.394-0.601-0.713-1.034-0.665-0.435 0.05-0.65 1.024-0.421 1.396" style="fill:#241084"/>
   </g>
   <g transform="translate(255.08,86.664)">
    <path d="m0 0c-2.284 3.511-4.025 7.373-5.144 11.409-0.186 0.673-1.523 2.846-1.538 3.543-0.021 0.983 3.082 2.687 4.4 2.621 1.297-0.063 0.945-3.596 1.234-4.534 0.85-2.761 4.858-6.472 4.996-9.354 0.062-1.297-2.126-3.296-3.948-3.685" style="fill:#241084"/>
   </g>
  </g>
 </g>
</svg>
